<svg xmlns="http://www.w3.org/2000/svg"
  viewBox="0 0 440 820" width="440" height="820">
  <defs>
    <style>text { font-family: 'Inter', 'Segoe UI', system-ui, sans-serif; }</style>
  </defs>

  <!-- Background -->
  <rect width="440" height="820" fill="#0f172a" rx="12"/>

  <!-- ═══ GRID A: Player A's attacks on B's fleet ═══ -->

  <!-- Header -->
  <text x="232" y="30" text-anchor="middle" font-size="13" font-weight="600" fill="#f43f5e">Player A attacks →</text>

  <!-- Column labels A-J -->
  <text x="79"  y="47" text-anchor="middle" font-size="10" fill="#64748b">A</text>
  <text x="115" y="47" text-anchor="middle" font-size="10" fill="#64748b">B</text>
  <text x="151" y="47" text-anchor="middle" font-size="10" fill="#64748b">C</text>
  <text x="187" y="47" text-anchor="middle" font-size="10" fill="#64748b">D</text>
  <text x="223" y="47" text-anchor="middle" font-size="10" fill="#64748b">E</text>
  <text x="259" y="47" text-anchor="middle" font-size="10" fill="#64748b">F</text>
  <text x="295" y="47" text-anchor="middle" font-size="10" fill="#64748b">G</text>
  <text x="331" y="47" text-anchor="middle" font-size="10" fill="#64748b">H</text>
  <text x="367" y="47" text-anchor="middle" font-size="10" fill="#64748b">I</text>
  <text x="403" y="47" text-anchor="middle" font-size="10" fill="#64748b">J</text>

  <!-- Row labels 1-10 -->
  <text x="66"  y="71"  text-anchor="end" font-size="10" fill="#64748b">1</text>
  <text x="66"  y="107" text-anchor="end" font-size="10" fill="#64748b">2</text>
  <text x="66"  y="143" text-anchor="end" font-size="10" fill="#64748b">3</text>
  <text x="66"  y="179" text-anchor="end" font-size="10" fill="#64748b">4</text>
  <text x="66"  y="215" text-anchor="end" font-size="10" fill="#64748b">5</text>
  <text x="66"  y="251" text-anchor="end" font-size="10" fill="#64748b">6</text>
  <text x="66"  y="287" text-anchor="end" font-size="10" fill="#64748b">7</text>
  <text x="66"  y="323" text-anchor="end" font-size="10" fill="#64748b">8</text>
  <text x="66"  y="359" text-anchor="end" font-size="10" fill="#64748b">9</text>
  <text x="66"  y="395" text-anchor="end" font-size="10" fill="#64748b">10</text>

  <!-- Grid A cells — 10x10, each 36x36, starting at x=70, y=53 -->
  <!-- Unknown (sea) cells = #0c4a6e; Miss = #334155; Hit = #ef4444 -->

  <!-- Row 0: idx 0=Miss, rest=Unknown -->
  <rect x="70"  y="53" width="35" height="35" fill="#334155" rx="2"/>
  <!-- Miss dot at (0,0) -->
  <circle cx="87" cy="70" r="4" fill="#94a3b8" opacity="0.7"/>

  <rect x="106" y="53" width="35" height="35" fill="#0c4a6e" rx="2"/>
  <rect x="142" y="53" width="35" height="35" fill="#0c4a6e" rx="2"/>
  <rect x="178" y="53" width="35" height="35" fill="#0c4a6e" rx="2"/>
  <rect x="214" y="53" width="35" height="35" fill="#0c4a6e" rx="2"/>
  <rect x="250" y="53" width="35" height="35" fill="#0c4a6e" rx="2"/>
  <rect x="286" y="53" width="35" height="35" fill="#0c4a6e" rx="2"/>
  <rect x="322" y="53" width="35" height="35" fill="#0c4a6e" rx="2"/>
  <rect x="358" y="53" width="35" height="35" fill="#0c4a6e" rx="2"/>
  <rect x="394" y="53" width="35" height="35" fill="#0c4a6e" rx="2"/>

  <!-- Row 1: idx 10=Hit, 11=Hit, rest=Unknown -->
  <rect x="70"  y="89" width="35" height="35" fill="#ef4444" rx="2"/>
  <line x1="78" y1="97" x2="97" y2="116" stroke="#fca5a5" stroke-width="2.5" stroke-linecap="round"/>
  <line x1="97" y1="97" x2="78" y2="116" stroke="#fca5a5" stroke-width="2.5" stroke-linecap="round"/>

  <rect x="106" y="89" width="35" height="35" fill="#ef4444" rx="2"/>
  <line x1="114" y1="97" x2="133" y2="116" stroke="#fca5a5" stroke-width="2.5" stroke-linecap="round"/>
  <line x1="133" y1="97" x2="114" y2="116" stroke="#fca5a5" stroke-width="2.5" stroke-linecap="round"/>

  <rect x="142" y="89" width="35" height="35" fill="#0c4a6e" rx="2"/>
  <rect x="178" y="89" width="35" height="35" fill="#0c4a6e" rx="2"/>
  <rect x="214" y="89" width="35" height="35" fill="#0c4a6e" rx="2"/>
  <rect x="250" y="89" width="35" height="35" fill="#0c4a6e" rx="2"/>
  <rect x="286" y="89" width="35" height="35" fill="#0c4a6e" rx="2"/>
  <rect x="322" y="89" width="35" height="35" fill="#0c4a6e" rx="2"/>
  <rect x="358" y="89" width="35" height="35" fill="#0c4a6e" rx="2"/>
  <rect x="394" y="89" width="35" height="35" fill="#0c4a6e" rx="2"/>

  <!-- Row 2: idx 20=Miss, 22=Miss -->
  <rect x="70"  y="125" width="35" height="35" fill="#334155" rx="2"/>
  <circle cx="87" cy="142" r="4" fill="#94a3b8" opacity="0.7"/>
  <rect x="106" y="125" width="35" height="35" fill="#0c4a6e" rx="2"/>
  <rect x="142" y="125" width="35" height="35" fill="#334155" rx="2"/>
  <circle cx="159" cy="142" r="4" fill="#94a3b8" opacity="0.7"/>
  <rect x="178" y="125" width="35" height="35" fill="#0c4a6e" rx="2"/>
  <rect x="214" y="125" width="35" height="35" fill="#0c4a6e" rx="2"/>
  <rect x="250" y="125" width="35" height="35" fill="#0c4a6e" rx="2"/>
  <rect x="286" y="125" width="35" height="35" fill="#0c4a6e" rx="2"/>
  <rect x="322" y="125" width="35" height="35" fill="#0c4a6e" rx="2"/>
  <rect x="358" y="125" width="35" height="35" fill="#0c4a6e" rx="2"/>
  <rect x="394" y="125" width="35" height="35" fill="#0c4a6e" rx="2"/>

  <!-- Row 3: idx 33=Hit -->
  <rect x="70"  y="161" width="35" height="35" fill="#0c4a6e" rx="2"/>
  <rect x="106" y="161" width="35" height="35" fill="#0c4a6e" rx="2"/>
  <rect x="142" y="161" width="35" height="35" fill="#0c4a6e" rx="2"/>
  <rect x="178" y="161" width="35" height="35" fill="#ef4444" rx="2"/>
  <line x1="186" y1="169" x2="205" y2="188" stroke="#fca5a5" stroke-width="2.5" stroke-linecap="round"/>
  <line x1="205" y1="169" x2="186" y2="188" stroke="#fca5a5" stroke-width="2.5" stroke-linecap="round"/>
  <rect x="214" y="161" width="35" height="35" fill="#0c4a6e" rx="2"/>
  <rect x="250" y="161" width="35" height="35" fill="#0c4a6e" rx="2"/>
  <rect x="286" y="161" width="35" height="35" fill="#0c4a6e" rx="2"/>
  <rect x="322" y="161" width="35" height="35" fill="#0c4a6e" rx="2"/>
  <rect x="358" y="161" width="35" height="35" fill="#0c4a6e" rx="2"/>
  <rect x="394" y="161" width="35" height="35" fill="#0c4a6e" rx="2"/>

  <!-- Row 4: idx 43=Miss -->
  <rect x="70"  y="197" width="35" height="35" fill="#0c4a6e" rx="2"/>
  <rect x="106" y="197" width="35" height="35" fill="#0c4a6e" rx="2"/>
  <rect x="142" y="197" width="35" height="35" fill="#0c4a6e" rx="2"/>
  <rect x="178" y="197" width="35" height="35" fill="#334155" rx="2"/>
  <circle cx="195" cy="214" r="4" fill="#94a3b8" opacity="0.7"/>
  <rect x="214" y="197" width="35" height="35" fill="#0c4a6e" rx="2"/>
  <rect x="250" y="197" width="35" height="35" fill="#0c4a6e" rx="2"/>
  <rect x="286" y="197" width="35" height="35" fill="#0c4a6e" rx="2"/>
  <rect x="322" y="197" width="35" height="35" fill="#0c4a6e" rx="2"/>
  <rect x="358" y="197" width="35" height="35" fill="#0c4a6e" rx="2"/>
  <rect x="394" y="197" width="35" height="35" fill="#0c4a6e" rx="2"/>

  <!-- Row 5: idx 53=Miss -->
  <rect x="70"  y="233" width="35" height="35" fill="#0c4a6e" rx="2"/>
  <rect x="106" y="233" width="35" height="35" fill="#0c4a6e" rx="2"/>
  <rect x="142" y="233" width="35" height="35" fill="#0c4a6e" rx="2"/>
  <rect x="178" y="233" width="35" height="35" fill="#334155" rx="2"/>
  <circle cx="195" cy="250" r="4" fill="#94a3b8" opacity="0.7"/>
  <rect x="214" y="233" width="35" height="35" fill="#0c4a6e" rx="2"/>
  <rect x="250" y="233" width="35" height="35" fill="#0c4a6e" rx="2"/>
  <rect x="286" y="233" width="35" height="35" fill="#0c4a6e" rx="2"/>
  <rect x="322" y="233" width="35" height="35" fill="#0c4a6e" rx="2"/>
  <rect x="358" y="233" width="35" height="35" fill="#0c4a6e" rx="2"/>
  <rect x="394" y="233" width="35" height="35" fill="#0c4a6e" rx="2"/>

  <!-- Rows 6-9: all unknown -->
  <rect x="70"  y="269" width="360" height="35" fill="#0c4a6e" rx="0"/>
  <rect x="70"  y="305" width="360" height="35" fill="#0c4a6e" rx="0"/>
  <rect x="70"  y="341" width="360" height="35" fill="#0c4a6e" rx="0"/>
  <rect x="70"  y="377" width="360" height="35" fill="#0c4a6e" rx="0"/>

  <!-- Grid A gridlines -->
  <rect x="70" y="53" width="360" height="360" fill="none" stroke="#475569" stroke-width="1.5" rx="2"/>
  <line x1="106" y1="53" x2="106" y2="413" stroke="#1e3a5f" stroke-width="0.75"/>
  <line x1="142" y1="53" x2="142" y2="413" stroke="#1e3a5f" stroke-width="0.75"/>
  <line x1="178" y1="53" x2="178" y2="413" stroke="#1e3a5f" stroke-width="0.75"/>
  <line x1="214" y1="53" x2="214" y2="413" stroke="#1e3a5f" stroke-width="0.75"/>
  <line x1="250" y1="53" x2="250" y2="413" stroke="#1e3a5f" stroke-width="0.75"/>
  <line x1="286" y1="53" x2="286" y2="413" stroke="#1e3a5f" stroke-width="0.75"/>
  <line x1="322" y1="53" x2="322" y2="413" stroke="#1e3a5f" stroke-width="0.75"/>
  <line x1="358" y1="53" x2="358" y2="413" stroke="#1e3a5f" stroke-width="0.75"/>
  <line x1="394" y1="53" x2="394" y2="413" stroke="#1e3a5f" stroke-width="0.75"/>
  <line x1="70" y1="89"  x2="430" y2="89"  stroke="#1e3a5f" stroke-width="0.75"/>
  <line x1="70" y1="125" x2="430" y2="125" stroke="#1e3a5f" stroke-width="0.75"/>
  <line x1="70" y1="161" x2="430" y2="161" stroke="#1e3a5f" stroke-width="0.75"/>
  <line x1="70" y1="197" x2="430" y2="197" stroke="#1e3a5f" stroke-width="0.75"/>
  <line x1="70" y1="233" x2="430" y2="233" stroke="#1e3a5f" stroke-width="0.75"/>
  <line x1="70" y1="269" x2="430" y2="269" stroke="#1e3a5f" stroke-width="0.75"/>
  <line x1="70" y1="305" x2="430" y2="305" stroke="#1e3a5f" stroke-width="0.75"/>
  <line x1="70" y1="341" x2="430" y2="341" stroke="#1e3a5f" stroke-width="0.75"/>
  <line x1="70" y1="377" x2="430" y2="377" stroke="#1e3a5f" stroke-width="0.75"/>

  <!-- Grid A stats sidebar -->
  <text x="436" y="68"  font-size="10" fill="#f43f5e">Hits: 3</text>
  <text x="436" y="83"  font-size="10" fill="#94a3b8">Miss: 5</text>
  <text x="436" y="102" font-size="10" fill="#64748b">Ships: 14/17</text>

  <!-- ═══ GRID B: Player B's attacks on A's fleet ═══ -->
  <!-- starts at y=437 (53 + 360 + 24 gap) -->

  <text x="232" y="432" text-anchor="middle" font-size="13" font-weight="600" fill="#38bdf8">Player B attacks →</text>

  <!-- Row labels 1-10 -->
  <text x="66"  y="460" text-anchor="end" font-size="10" fill="#64748b">1</text>
  <text x="66"  y="496" text-anchor="end" font-size="10" fill="#64748b">2</text>
  <text x="66"  y="532" text-anchor="end" font-size="10" fill="#64748b">3</text>
  <text x="66"  y="568" text-anchor="end" font-size="10" fill="#64748b">4</text>
  <text x="66"  y="604" text-anchor="end" font-size="10" fill="#64748b">5</text>
  <text x="66"  y="640" text-anchor="end" font-size="10" fill="#64748b">6</text>
  <text x="66"  y="676" text-anchor="end" font-size="10" fill="#64748b">7</text>
  <text x="66"  y="712" text-anchor="end" font-size="10" fill="#64748b">8</text>
  <text x="66"  y="748" text-anchor="end" font-size="10" fill="#64748b">9</text>
  <text x="66"  y="784" text-anchor="end" font-size="10" fill="#64748b">10</text>

  <!-- Grid B: Row 1 (y=442) — idx 11=Hit, 12=Miss -->
  <rect x="70"  y="442" width="35" height="35" fill="#0c4a6e" rx="2"/>
  <rect x="106" y="442" width="35" height="35" fill="#ef4444" rx="2"/>
  <line x1="114" y1="450" x2="133" y2="469" stroke="#fca5a5" stroke-width="2.5" stroke-linecap="round"/>
  <line x1="133" y1="450" x2="114" y2="469" stroke="#fca5a5" stroke-width="2.5" stroke-linecap="round"/>
  <rect x="142" y="442" width="35" height="35" fill="#334155" rx="2"/>
  <circle cx="159" cy="459" r="4" fill="#94a3b8" opacity="0.7"/>
  <rect x="178" y="442" width="35" height="35" fill="#0c4a6e" rx="2"/>
  <rect x="214" y="442" width="35" height="35" fill="#0c4a6e" rx="2"/>
  <rect x="250" y="442" width="35" height="35" fill="#0c4a6e" rx="2"/>
  <rect x="286" y="442" width="35" height="35" fill="#0c4a6e" rx="2"/>
  <rect x="322" y="442" width="35" height="35" fill="#0c4a6e" rx="2"/>
  <rect x="358" y="442" width="35" height="35" fill="#0c4a6e" rx="2"/>
  <rect x="394" y="442" width="35" height="35" fill="#0c4a6e" rx="2"/>

  <!-- Grid B: Row 2 (y=478) — idx 21=Miss -->
  <rect x="70"  y="478" width="35" height="35" fill="#0c4a6e" rx="2"/>
  <rect x="106" y="478" width="35" height="35" fill="#334155" rx="2"/>
  <circle cx="123" cy="495" r="4" fill="#94a3b8" opacity="0.7"/>
  <rect x="142" y="478" width="35" height="35" fill="#0c4a6e" rx="2"/>
  <rect x="178" y="478" width="35" height="35" fill="#0c4a6e" rx="2"/>
  <rect x="214" y="478" width="35" height="35" fill="#0c4a6e" rx="2"/>
  <rect x="250" y="478" width="35" height="35" fill="#0c4a6e" rx="2"/>
  <rect x="286" y="478" width="35" height="35" fill="#0c4a6e" rx="2"/>
  <rect x="322" y="478" width="35" height="35" fill="#0c4a6e" rx="2"/>
  <rect x="358" y="478" width="35" height="35" fill="#0c4a6e" rx="2"/>
  <rect x="394" y="478" width="35" height="35" fill="#0c4a6e" rx="2"/>

  <!-- Grid B: Row 3 (y=514) — idx 31=Hit, 32=Miss -->
  <rect x="70"  y="514" width="35" height="35" fill="#0c4a6e" rx="2"/>
  <rect x="106" y="514" width="35" height="35" fill="#ef4444" rx="2"/>
  <line x1="114" y1="522" x2="133" y2="541" stroke="#fca5a5" stroke-width="2.5" stroke-linecap="round"/>
  <line x1="133" y1="522" x2="114" y2="541" stroke="#fca5a5" stroke-width="2.5" stroke-linecap="round"/>
  <rect x="142" y="514" width="35" height="35" fill="#334155" rx="2"/>
  <circle cx="159" cy="531" r="4" fill="#94a3b8" opacity="0.7"/>
  <rect x="178" y="514" width="35" height="35" fill="#0c4a6e" rx="2"/>
  <rect x="214" y="514" width="35" height="35" fill="#0c4a6e" rx="2"/>
  <rect x="250" y="514" width="35" height="35" fill="#0c4a6e" rx="2"/>
  <rect x="286" y="514" width="35" height="35" fill="#0c4a6e" rx="2"/>
  <rect x="322" y="514" width="35" height="35" fill="#0c4a6e" rx="2"/>
  <rect x="358" y="514" width="35" height="35" fill="#0c4a6e" rx="2"/>
  <rect x="394" y="514" width="35" height="35" fill="#0c4a6e" rx="2"/>

  <!-- Grid B: Row 4 (y=550) — idx 41=Hit -->
  <rect x="70"  y="550" width="35" height="35" fill="#0c4a6e" rx="2"/>
  <rect x="106" y="550" width="35" height="35" fill="#ef4444" rx="2"/>
  <line x1="114" y1="558" x2="133" y2="577" stroke="#fca5a5" stroke-width="2.5" stroke-linecap="round"/>
  <line x1="133" y1="558" x2="114" y2="577" stroke="#fca5a5" stroke-width="2.5" stroke-linecap="round"/>
  <rect x="142" y="550" width="35" height="35" fill="#0c4a6e" rx="2"/>
  <rect x="178" y="550" width="35" height="35" fill="#0c4a6e" rx="2"/>
  <rect x="214" y="550" width="35" height="35" fill="#0c4a6e" rx="2"/>
  <rect x="250" y="550" width="35" height="35" fill="#0c4a6e" rx="2"/>
  <rect x="286" y="550" width="35" height="35" fill="#0c4a6e" rx="2"/>
  <rect x="322" y="550" width="35" height="35" fill="#0c4a6e" rx="2"/>
  <rect x="358" y="550" width="35" height="35" fill="#0c4a6e" rx="2"/>
  <rect x="394" y="550" width="35" height="35" fill="#0c4a6e" rx="2"/>

  <!-- Grid B: Rows 5-9 (all unknown) -->
  <rect x="70" y="586" width="360" height="35" fill="#0c4a6e" rx="0"/>
  <rect x="70" y="622" width="360" height="35" fill="#0c4a6e" rx="0"/>
  <rect x="70" y="658" width="360" height="35" fill="#0c4a6e" rx="0"/>
  <rect x="70" y="694" width="360" height="35" fill="#0c4a6e" rx="0"/>
  <rect x="70" y="730" width="360" height="35" fill="#0c4a6e" rx="0"/>

  <!-- Grid B gridlines -->
  <rect x="70" y="442" width="360" height="360" fill="none" stroke="#475569" stroke-width="1.5" rx="2"/>
  <line x1="106" y1="442" x2="106" y2="802" stroke="#1e3a5f" stroke-width="0.75"/>
  <line x1="142" y1="442" x2="142" y2="802" stroke="#1e3a5f" stroke-width="0.75"/>
  <line x1="178" y1="442" x2="178" y2="802" stroke="#1e3a5f" stroke-width="0.75"/>
  <line x1="214" y1="442" x2="214" y2="802" stroke="#1e3a5f" stroke-width="0.75"/>
  <line x1="250" y1="442" x2="250" y2="802" stroke="#1e3a5f" stroke-width="0.75"/>
  <line x1="286" y1="442" x2="286" y2="802" stroke="#1e3a5f" stroke-width="0.75"/>
  <line x1="322" y1="442" x2="322" y2="802" stroke="#1e3a5f" stroke-width="0.75"/>
  <line x1="358" y1="442" x2="358" y2="802" stroke="#1e3a5f" stroke-width="0.75"/>
  <line x1="394" y1="442" x2="394" y2="802" stroke="#1e3a5f" stroke-width="0.75"/>
  <line x1="70" y1="478" x2="430" y2="478" stroke="#1e3a5f" stroke-width="0.75"/>
  <line x1="70" y1="514" x2="430" y2="514" stroke="#1e3a5f" stroke-width="0.75"/>
  <line x1="70" y1="550" x2="430" y2="550" stroke="#1e3a5f" stroke-width="0.75"/>
  <line x1="70" y1="586" x2="430" y2="586" stroke="#1e3a5f" stroke-width="0.75"/>
  <line x1="70" y1="622" x2="430" y2="622" stroke="#1e3a5f" stroke-width="0.75"/>
  <line x1="70" y1="658" x2="430" y2="658" stroke="#1e3a5f" stroke-width="0.75"/>
  <line x1="70" y1="694" x2="430" y2="694" stroke="#1e3a5f" stroke-width="0.75"/>
  <line x1="70" y1="730" x2="430" y2="730" stroke="#1e3a5f" stroke-width="0.75"/>
  <line x1="70" y1="766" x2="430" y2="766" stroke="#1e3a5f" stroke-width="0.75"/>

  <!-- Grid B stats sidebar -->
  <text x="436" y="457" font-size="10" fill="#38bdf8">Hits: 3</text>
  <text x="436" y="472" font-size="10" fill="#94a3b8">Miss: 3</text>
  <text x="436" y="491" font-size="10" fill="#64748b">Ships: 14/17</text>

  <!-- Status bar -->
  <rect x="0" y="805" width="440" height="60" fill="#1e293b"/>
  <rect x="0" y="805" width="440" height="1.5" fill="#475569"/>

  <!-- Status -->
  <rect x="12" y="815" width="196" height="30" rx="15" fill="#38bdf822"/>
  <text x="110" y="835" text-anchor="middle" font-size="13" font-weight="600" fill="#38bdf8">Player A's turn to attack</text>

  <!-- Watermark -->
  <text x="220" y="855" text-anchor="middle" font-size="9" fill="#64748b" letter-spacing="2">COUGR · BATTLESHIP · COMMIT-REVEAL</text>
</svg>
